<svg xmlns="http://www.w3.org/2000/svg" viewBox="0 0 32 32">
  <defs>
    <linearGradient id="grad" x1="0" y1="0" x2="1" y2="1">
      <stop offset="0%" stop-color="#3b82f6"/>
      <stop offset="100%" stop-color="#8b5cf6"/>
    </linearGradient>
  </defs>
  <rect width="32" height="32" rx="8" fill="url(#grad)"/>
  <path d="M16 7a6 6 0 0 1 6 6v2a2 2 0 0 1-2 2h-8a2 2 0 0 1-2-2v-2a6 6 0 0 1 6-6zm-3 8h2v-2h-2v2zm4 0h2v-2h-2v2zm-5 5h8v1a3 3 0 0 1-3 3h-2a3 3 0 0 1-3-3v-1z" fill="white" fill-opacity="0.9"/>
</svg>
